<svg xmlns="http://www.w3.org/2000/svg" width="32" height="32" viewBox="0 0 64 64" id="svgid14" repair="1" xmlns:xlink="http://www.w3.org/1999/xlink"><defs><path id="MTBteHkyMjIxMDAwMDAwMDAwMHh6czM3MA" d="M11.894 11h40.213C56.243 11 59 14.5 59 21.5V50c0 1.934-1.096 3-3 3H8c-1.903 0-3-1.066-3-3V21.5c0-7 2.757-10.5 6.894-10.5z"></path></defs><use fill="rgb(70, 209, 201)" fill-rule="evenodd" xlink:href="#MTBteHkyMjIxMDAwMDAwMDAwMHh6czM3MA" overflow="visible" clip-rule="evenodd" coriginal="rgb(224, 163, 10, 1)" colortype="19" awdzp="19" style="fill: rgb(70, 209, 201);"></use><clipPath id="MTBteHk0MjEwMDAwMDAwMDAweHpzMTYy"><use xlink:href="#MTBteHkyMjIxMDAwMDAwMDAwMHh6czM3MA" overflow="visible"></use></clipPath><g class="st2" clip-path="url(#MTBteHk0MjEwMDAwMDAwMDAweHpzMTYy)"><defs><path id="MTBteHk3MTExMDAwMDAwMDAwMHh6czcx" d="M50 11c1 0 4 1.91 4 7.768V27H10v-6.768S13 11 14 11h36zM10 37v12h44V37H10z"></path></defs><use fill="rgb(121, 132, 155)" xlink:href="#MTBteHk3MTExMDAwMDAwMDAwMHh6czcx" class="stshockcolor" data-st="fill:#C7441C;;overflow:visible;" overflow="visible" coriginal="rgb(199, 68, 28, 1)" colortype="29" awdzp="29" style="fill: rgb(121, 132, 155);"></use><clipPath id="MTBteHkzOTExMDAwMDAwMDAwMHh6czM3Mg"><use xlink:href="#MTBteHk3MTExMDAwMDAwMDAwMHh6czcx" overflow="visible"></use></clipPath><g class="st3" clip-path="url(#MTBteHkzOTExMDAwMDAwMDAwMHh6czM3Mg)"><path fill="rgb(0, 0, 13)" d="M59 53H13.288L32 42.196 10 27V17h47.642L39.714 27.35 59 31" class="st6" opacity=".3" coriginal="rgb(35, 31, 32, 1)" colortype="37" awdzp="37" style="fill: rgb(0, 0, 13);"></path></g><path fill="rgb(0, 0, 13)" d="M5 31h54v2H5v-2z" class="st6" opacity=".3" coriginal="rgb(35, 31, 32, 1)" colortype="37" awdzp="37" style="fill: rgb(0, 0, 13);"></path></g><path fill="rgb(0, 0, 13)" fill-rule="evenodd" d="M43.34 37H36l-1.34-10.04H42" class="st7" opacity=".3" clip-rule="evenodd" coriginal="rgb(35, 31, 32, 1)" colortype="37" awdzp="37" style="fill: rgb(0, 0, 13);"></path><defs><path id="MTBteHk0NTEwMDAwMDAwMDAweHpzMzc4" d="M23 37l2-15h14l2 15-9 5.196z"></path></defs><use fill="rgb(70, 209, 201)" fill-rule="evenodd" xlink:href="#MTBteHk0NTEwMDAwMDAwMDAweHpzMzc4" overflow="visible" clip-rule="evenodd" coriginal="rgb(224, 163, 10, 1)" colortype="19" awdzp="19" style="fill: rgb(70, 209, 201);"></use><clipPath id="MTBteHk1MzEwMDAwMDAwMDAweHpzMzg"><use xlink:href="#MTBteHk0NTEwMDAwMDAwMDAweHpzMzc4" overflow="visible"></use></clipPath><g class="st4" clip-path="url(#MTBteHk1MzEwMDAwMDAwMDAweHpzMzg)"><path fill="rgb(0, 0, 13)" d="M35 30c0-1.657-1.344-3-3-3-1.657 0-3 1.343-3 3 0 1.37.924 2.513 2.18 2.872L30 37h4l-1.18-4.128C34.075 32.512 35 31.37 35 30z" class="st5 st1" opacity=".6" coriginal="rgb(35, 31, 32, 1)" colortype="37" awdzp="37" style="fill: rgb(0, 0, 13);"></path><path fill="rgb(249, 249, 249)" d="M41 22H23v15l18-10.392" class="st0" opacity=".3" coriginal="rgb(255, 255, 255, 1)" colortype="0" awdzp="0" style="fill: rgb(249, 249, 249);"></path></g></svg>