<svg xmlns="http://www.w3.org/2000/svg" width="32" height="32" viewBox="0 0 64 64" id="svgid17" repair="1" xmlns:xlink="http://www.w3.org/1999/xlink"><defs><circle id="MTBteHk4NTQxMDAwMDAwMDAwMHh6czI1OA" cx="32" cy="32" r="25"></circle></defs><use fill="rgb(219, 247, 244)" xlink:href="#MTBteHk4NTQxMDAwMDAwMDAwMHh6czI1OA" class="stshockcolor" data-st="fill:#F7C90B;;overflow:visible;" overflow="visible" coriginal="rgb(247, 201, 11, 1)" colortype="8" awdzp="8" style="fill: rgb(219, 247, 244);"></use><clipPath id="MTBteHk4NjMxMDAwMDAwMDAwMHh6czU"><use xlink:href="#MTBteHk4NTQxMDAwMDAwMDAwMHh6czI1OA" overflow="visible"></use></clipPath><g class="st0" opacity=".4" clip-path="url(#MTBteHk4NjMxMDAwMDAwMDAwMHh6czU)"><path fill="rgb(0, 0, 13)" d="M38.292 34.167L32 32.687l-9.17-10.42L2.825 57H33.07L42 41.582" class="st2" opacity=".3" coriginal="rgb(35, 31, 32, 1)" colortype="37" awdzp="37" style="fill: rgb(0, 0, 13);"></path><path fill="rgb(249, 249, 249)" d="M31.693 7L22.83 22.268l2.998 6.856 12.464 5.043 3.706 7.415L61.938 7" class="st1" opacity=".75" coriginal="rgb(255, 255, 255, 1)" colortype="0" awdzp="0" style="fill: rgb(249, 249, 249);"></path><path d="M42.985 37.548c0-4.788-2.897-7.052-10.53-8.305-3.955-.65-4.56-2.285-4.455-3.51C28.125 24.28 29.367 23 32 23c4.334 0 5.493 2.296 5.856 2.934l4.772-2.802c-1.713-3.013-4.176-4.604-8.63-5.018V14h-4v4.083c-4.437.47-7.67 3.118-8 6.917-.312 3.63 1.265 8.282 9.5 9.758C35.562 35.486 37 36.673 37 38c0 1.906-2.12 3-5 3-3.165 0-5.683-1.856-6.825-3.866l-4.773 2.8c2.03 3.575 4.862 5.475 9.598 5.945V50h4v-4.07c5.29-.45 8.985-3.342 8.985-8.382z"></path></g></svg>