<svg xmlns="http://www.w3.org/2000/svg" width="32" height="32" viewBox="0 0 64 64" id="svgid22" repair="1" xmlns:xlink="http://www.w3.org/1999/xlink"><defs><path id="MTBteHk2NTcxMDAwMDAwMDAwMHh6czEyOA" d="M57 39V7H7v32L1.227 57h61.546z"></path></defs><use fill="rgb(60, 199, 191)" xlink:href="#MTBteHk2NTcxMDAwMDAwMDAwMHh6czEyOA" class="stshockcolor" data-st="fill:#EA7A2F;;overflow:visible;" overflow="visible" coriginal="rgb(234, 122, 47, 1)" colortype="21" awdzp="21" style="fill: rgb(60, 199, 191);"></use><clipPath id="MTBteHk1NzUxMDAwMDAwMDAwMHh6czIwOQ"><use xlink:href="#MTBteHk2NTcxMDAwMDAwMDAwMHh6czEyOA" overflow="visible"></use></clipPath><g class="st4" clip-path="url(#MTBteHk1NzUxMDAwMDAwMDAwMHh6czIwOQ)"><path fill="rgb(136, 147, 170)" d="M57 39v-6h-9.897l-15.15-8.75c-.667-.384-1.457-.357-2.08 0-.1.06-1.603.926-3.565 2.06l-8.71-5.03c-.667-.385-1.458-.36-2.08 0L7 26.195V39L1.228 57h61.547L57 39z" class="st6" opacity=".15" coriginal="rgb(125, 28, 199, 1)" colortype="26" awdzp="26" style="fill: rgb(136, 147, 170);"></path><path fill="rgb(0, 0, 13)" d="M57 39v-6h-9.897l-15.15-8.75c-.667-.384-1.457-.357-2.08 0-.1.06-1.603.926-3.565 2.06l-8.71-5.03c-.667-.385-1.458-.36-2.08 0L7 26.195V39L1.228 57h61.547L57 39z" class="st2" opacity=".5" coriginal="rgb(35, 31, 32, 1)" colortype="37" awdzp="37" style="fill: rgb(0, 0, 13);"></path><path fill="rgb(249, 249, 249)" fill-opacity=".3" d="M1.227 39h61.547v18H1.227z" class="st3" coriginal="rgb(255, 255, 255, 1)" colortype="0" awdzp="0" style="fill: rgb(249, 249, 249);"></path><path fill="rgb(0, 0, 13)" d="M59.375 41.188L47 48.333 32 22.355 57.562 7.597" class="st7" opacity=".3" coriginal="rgb(35, 31, 32, 1)" colortype="37" awdzp="37" style="fill: rgb(0, 0, 13);"></path><circle cx="49" cy="18" r="5" fill="rgb(70, 209, 201)" class="st0" coriginal="rgb(224, 163, 10, 1)" colortype="19" awdzp="19" style="fill: rgb(70, 209, 201);"></circle></g><defs><path id="MTBteHkzMjIxMDAwMDAwMDAwMHh6czY" d="M17 31.013l15-8.658 15 8.658v17.32L32 57l-15-8.667z"></path></defs><use fill="rgb(70, 209, 201)" xlink:href="#MTBteHkzMjIxMDAwMDAwMDAwMHh6czY" class="st0" overflow="visible" coriginal="rgb(224, 163, 10, 1)" colortype="19" awdzp="19" style="fill: rgb(70, 209, 201);"></use><clipPath id="MTBteHk4ODIxMDAwMDAwMDAwMHh6czk2Mg"><use xlink:href="#MTBteHkzMjIxMDAwMDAwMDAwMHh6czY" overflow="visible"></use></clipPath><g class="st5" clip-path="url(#MTBteHk4ODIxMDAwMDAwMDAwMHh6czk2Mg)"><path fill="rgb(249, 249, 249)" d="M47 31.013l-15 8.662-15-8.662v-8.658h30" class="st1" opacity=".3" coriginal="rgb(255, 255, 255, 1)" colortype="0" awdzp="0" style="fill: rgb(249, 249, 249);"></path><path fill="rgb(136, 147, 170)" d="M47 31.013l-15 8.662V57h15" class="st6" opacity=".15" coriginal="rgb(125, 28, 199, 1)" colortype="26" awdzp="26" style="fill: rgb(136, 147, 170);"></path></g></svg>