<svg xmlns="http://www.w3.org/2000/svg" width="32" height="32" viewBox="0 0 64 64" id="svgid16" repair="1" xmlns:xlink="http://www.w3.org/1999/xlink"><defs><circle id="MTBteHk1NDIxMDAwMDAwMDAwMHh6czM0Ng" cx="32" cy="32" r="26"></circle></defs><use fill="rgb(173, 201, 198)" xlink:href="#MTBteHk1NDIxMDAwMDAwMDAwMHh6czM0Ng" overflow="visible" coriginal="rgb(117, 162, 216, 1)" colortype="14" awdzp="14" style="fill: rgb(173, 201, 198);"></use><clipPath id="MTBteHk4NzAxMDAwMDAwMDAwMHh6czY2NQ"><use xlink:href="#MTBteHk1NDIxMDAwMDAwMDAwMHh6czM0Ng" overflow="visible"></use></clipPath><g class="st3" clip-path="url(#MTBteHk4NzAxMDAwMDAwMDAwMHh6czY2NQ)"><path fill="rgb(249, 249, 249)" d="M6 58h1.02L58 28.566V6H6" class="st0" opacity=".3" coriginal="rgb(255, 255, 255, 1)" colortype="0" awdzp="0" style="fill: rgb(249, 249, 249);"></path><defs><path id="MTBteHkzNDAxMDAwMDAwMDAwMHh6czI2Ng" d="M25 6l14 7v3l-7 9h-9v6l4 2 3-3 10 4 3 5-6 15h-2L25 38l-6-6-6-19.167V6h12zm30 3l-4 5-3 10 4 2 6-2 6 2v2H52l-3 6 4 5h5v9l5 3 7-7V9H55z"></path></defs><use fill="rgb(90, 229, 221)" xlink:href="#MTBteHkzNDAxMDAwMDAwMDAwMHh6czI2Ng" class="stshockcolor" data-st="fill:#EA9F2F;;overflow:visible;" overflow="visible" coriginal="rgb(234, 159, 47, 1)" colortype="15" awdzp="15" style="fill: rgb(90, 229, 221);"></use><clipPath id="MTBteHkzMzUxMDAwMDAwMDAwMHh6czYwNw"><use xlink:href="#MTBteHkzNDAxMDAwMDAwMDAwMHh6czI2Ng" overflow="visible"></use></clipPath><g class="st4" clip-path="url(#MTBteHkzMzUxMDAwMDAwMDAwMHh6czYwNw)"><path fill="rgb(249, 249, 249)" d="M58 28.56L6 58.584V6h52" class="st1" opacity=".15" coriginal="rgb(255, 255, 255, 1)" colortype="0" awdzp="0" style="fill: rgb(249, 249, 249);"></path><path fill="rgb(151, 162, 185)" d="M6 58.583L58 28.56V58H6" class="st2" opacity=".15" coriginal="rgb(105, 88, 219, 1)" colortype="23" awdzp="23" style="fill: rgb(151, 162, 185);"></path></g></g></svg>