<svg xmlns="http://www.w3.org/2000/svg" width="32" height="32" viewBox="0 0 64 64" id="svgid24" repair="1" xmlns:xlink="http://www.w3.org/1999/xlink"><defs><path id="MTBteHk1MjEwMDAwMDAwMDAweHpzNTkz" d="M58.62 50l-5.344-9.253c-.878-1.52-1.276-3.31-1.276-6.21V29c0-12.15-8.313-22-24-22H14l15.01 26 3.026 2.135L40.62 50h18z"></path></defs><use fill="rgb(207, 207, 207)" xlink:href="#MTBteHk1MjEwMDAwMDAwMDAweHpzNTkz" class="stshockcolor" data-st="fill:#DE7047;;overflow:visible;" overflow="visible" coriginal="rgb(222, 112, 71, 1)" colortype="22" awdzp="22" style="fill: rgb(207, 207, 207);"></use><clipPath id="MTBteHkzNTMxMDAwMDAwMDAwMHh6czEzMA"><use xlink:href="#MTBteHk1MjEwMDAwMDAwMDAweHpzNTkz" overflow="visible"></use></clipPath><g class="st3" clip-path="url(#MTBteHkzNTMxMDAwMDAwMDAwMHh6czEzMA)"><path fill-rule="evenodd" d="M58.62 7h-18.1L29 50h29.62" class="st6" opacity=".3" clip-rule="evenodd"></path></g><defs><path id="MTBteHk1OTUxMDAwMDAwMDAwMHh6czkzNQ" d="M42.98 38.815C43.63 37.168 44 35.38 44 33.5 44 25.492 37.51 19 29.5 19c-10 0-13.427 3.266-15.5 11-1.136 4.24-2.49 9.296-3.484 13h4.5c-1.872 6.984-3.908 14.588-4.822 18h2.057c10 0 14.68-3.266 16.75-11h20.44l-6.46-11.185z"></path></defs><use fill="rgb(235, 235, 235)" xlink:href="#MTBteHk1OTUxMDAwMDAwMDAwMHh6czkzNQ" class="st8" overflow="visible" coriginal="rgb(224, 163, 10, 1)" colortype="19" awdzp="19" style="fill: rgb(235, 235, 235);"></use><clipPath id="MTBteHk3OTAxMDAwMDAwMDAwMHh6czc5OQ"><use xlink:href="#MTBteHk1OTUxMDAwMDAwMDAwMHh6czkzNQ" overflow="visible"></use></clipPath><g class="st4" clip-path="url(#MTBteHk3OTAxMDAwMDAwMDAwMHh6czc5OQ)"><path fill="rgb(255, 255, 255, 1)" fill-rule="evenodd" d="M36.79 20.922h-4.228c-8.685 0-11.948 1.19-14.858 12.05L15.016 43 8.193 61h20L29 50l7.79-29.078z" class="st0" opacity=".3" clip-rule="evenodd" coriginal="rgb(255, 255, 255, 1)" colortype="0" awdzp="0" colorover="rgb(255, 255, 255, 1)" style="fill: rgb(255, 255, 255);" attrfill="block"></path><g class="st2" opacity=".15"><path fill-rule="evenodd" d="M56.9 20.048H37.025L29 50h24.442" class="st5" clip-rule="evenodd"></path><path fill="rgb(207, 207, 207)" d="M56.9 20.048H37.025L29 50h24.442" class="stshockcolor" data-st="fill:#DE7047;;overflow:visible;" coriginal="rgb(222, 112, 71, 1)" colortype="22" awdzp="22" style="fill: rgb(207, 207, 207);"></path></g></g><path fill-rule="evenodd" d="M17.704 32.972h10.213S27 37 23 37h-6.376l1.08-4.028z" class="st7" opacity=".5" clip-rule="evenodd"></path></svg>