<svg xmlns="http://www.w3.org/2000/svg" width="32" height="32" viewBox="0 0 64 64" id="svgid6" repair="1" xmlns:xlink="http://www.w3.org/1999/xlink"><path fill="rgb(70, 209, 201)" d="M57 33V21.725c1.744-.62 3-2.268 3-4.225 0-2.485-2.015-4.5-4.5-4.5-.992 0-1.9.33-2.646.875l-8.88-5.127c.005-.083.026-.163.026-.248C44 6.015 41.985 4 39.5 4S35 6.015 35 8.5c0 .256.034.503.075.747L11.28 22.985c-.384-.303-.812-.543-1.28-.71V13h3V4H4v9h3v9.275c-1.744.62-3 2.268-3 4.225C4 28.985 6.015 31 8.5 31s4.5-2.015 4.5-4.5c0-.337-.043-.663-.114-.98L36.54 11.866c.793.698 1.82 1.135 2.96 1.135 1.31 0 2.48-.57 3.303-1.46l8.36 4.83c-.096.37-.163.74-.163 1.14 0 1.96 1.256 3.61 3 4.23V33h-5l6.5 11.26L62 33h-5z" class="st0" coriginal="rgb(224, 163, 10, 1)" colortype="19" awdzp="19" style="fill: rgb(70, 209, 201);"></path><defs><path id="MTBteHk2MzkxMDAwMDAwMDAwMHh6czU5MQ" d="M26 39l-14 7c-4 2-4 3-5 14h50c-1-11-1-12-5-14l-14-7H26z"></path></defs><use fill="rgb(239, 239, 239)" fill-rule="evenodd" xlink:href="#MTBteHk2MzkxMDAwMDAwMDAwMHh6czU5MQ" overflow="visible" clip-rule="evenodd" coriginal="rgb(222, 220, 217, 1)" colortype="2" awdzp="2" style="fill: rgb(239, 239, 239);"></use><clipPath id="MTBteHk0NDcxMDAwMDAwMDAwMHh6czMyNA"><use xlink:href="#MTBteHk2MzkxMDAwMDAwMDAwMHh6czU5MQ" overflow="visible"></use></clipPath><g class="st7" clip-path="url(#MTBteHk0NDcxMDAwMDAwMDAwMHh6czMyNA)"><path fill="rgb(249, 249, 249)" d="M32.084 61H7l.084-18.533.97 3.447L32.12 59.808" class="st9 st10" opacity=".2" coriginal="rgb(255, 255, 255, 1)" colortype="0" awdzp="0" style="fill: rgb(249, 249, 249);"></path><path fill="rgb(173, 201, 198)" fill-rule="evenodd" d="M27 61l3.777-12L26 41h12l-5 8 4 12H27z" class="st2" clip-rule="evenodd" coriginal="rgb(117, 162, 216, 1)" colortype="14" awdzp="14" style="fill: rgb(173, 201, 198);"></path><path fill="rgb(0, 0, 13)" fill-rule="evenodd" d="M32.005 35.625h25.933v25.75H32.005z" class="st11" opacity=".2" clip-rule="evenodd" coriginal="rgb(35, 31, 32, 1)" colortype="37" awdzp="37" style="fill: rgb(0, 0, 13);"></path></g><g fill-rule="evenodd" clip-rule="evenodd"><path fill="rgb(239, 239, 239)" d="M24 46.313c0 1.407 1.175 1.938 2.287.92C29.047 44.703 32 42 32 42v-3.5h-8v7.813z" class="st5" coriginal="rgb(222, 220, 217, 1)" colortype="2" awdzp="2" style="fill: rgb(239, 239, 239);"></path><path fill="rgb(249, 249, 249)" d="M24 46.313c0 1.407 1.175 1.938 2.287.92C29.047 44.703 32 42 32 42v-3.5h-8v7.813z" class="st4" opacity=".3" coriginal="rgb(255, 255, 255, 1)" colortype="0" awdzp="0" style="fill: rgb(249, 249, 249);"></path><path fill="rgb(239, 239, 239)" d="M40 46.313c0 1.407-1.175 1.938-2.287.92C34.953 44.703 32 42 32 42v-3.5h8v7.813z" class="st5" coriginal="rgb(222, 220, 217, 1)" colortype="2" awdzp="2" style="fill: rgb(239, 239, 239);"></path></g><defs><path id="MTBteHk3NzQxMDAwMDAwMDAwMHh6czk1Mw" d="M32 7c10.344 0 13 7.442 13 13v8.5C45 34.362 39.448 42 32 42s-13-7.637-13-13.5V20c0-5.558 2.655-13 13-13z"></path></defs><use fill="rgb(219, 219, 219)" fill-rule="evenodd" xlink:href="#MTBteHk3NzQxMDAwMDAwMDAwMHh6czk1Mw" class="stshockcolor" data-st="fill:#85DED8;;overflow:visible;fill-rule:evenodd;clip-rule:evenodd;" overflow="visible" clip-rule="evenodd" coriginal="rgb(133, 222, 216, 1)" colortype="6" awdzp="6" style="fill: rgb(219, 219, 219);"></use><clipPath id="MTBteHk1NTkxMDAwMDAwMDAwMHh6czk4Mw"><use xlink:href="#MTBteHk3NzQxMDAwMDAwMDAwMHh6czk1Mw" overflow="visible"></use></clipPath><g class="st8" clip-path="url(#MTBteHk1NTkxMDAwMDAwMDAwMHh6czk4Mw)"><path fill="rgb(249, 249, 249)" d="M19 7h13v35H19z" class="st6" opacity=".15" coriginal="rgb(255, 255, 255, 1)" colortype="0" awdzp="0" style="fill: rgb(249, 249, 249);"></path><path fill="rgb(0, 0, 13)" d="M45.425 14.58L32 22.33V42h14" class="st1" opacity=".15" coriginal="rgb(35, 31, 32, 1)" colortype="37" awdzp="37" style="fill: rgb(0, 0, 13);"></path><path fill="rgb(249, 249, 249)" d="M32 22.33V7H19v17.825l13 7.505" class="st3" opacity=".3" coriginal="rgb(255, 255, 255, 1)" colortype="0" awdzp="0" style="fill: rgb(249, 249, 249);"></path><ellipse cx="26.5" cy="25" fill="rgb(0, 0, 13)" fill-opacity=".6" class="st12" rx="1.5" ry="2" coriginal="rgb(35, 31, 32, 1)" colortype="37" awdzp="37" style="fill: rgb(0, 0, 13);"></ellipse><ellipse cx="37.5" cy="25" fill="rgb(0, 0, 13)" fill-opacity=".6" class="st12" rx="1.5" ry="2" coriginal="rgb(35, 31, 32, 1)" colortype="37" awdzp="37" style="fill: rgb(0, 0, 13);"></ellipse></g></svg>