<svg xmlns="http://www.w3.org/2000/svg" width="32" height="32" viewBox="0 0 64 64" id="svgid21" repair="1" xmlns:xlink="http://www.w3.org/1999/xlink"><defs><path id="MTBteHkxODQxMDAwMDAwMDAwMHh6czM1Mw" d="M40 52.032l-8.005-8.693L24 52l-8.556 4.968 33.11.03z"></path></defs><use fill="rgb(0, 0, 23)" xlink:href="#MTBteHkxODQxMDAwMDAwMDAwMHh6czM1Mw" overflow="visible" coriginal="rgb(71, 71, 94, 1)" colortype="35" awdzp="35" style="fill: rgb(0, 0, 23);"></use><clipPath id="MTBteHkzNDExMDAwMDAwMDAwMHh6czc5NA"><use xlink:href="#MTBteHkxODQxMDAwMDAwMDAwMHh6czM1Mw" overflow="visible"></use></clipPath><g class="st4" clip-path="url(#MTBteHkzNDExMDAwMDAwMDAwMHh6czc5NA)"><path fill="rgb(0, 0, 13)" d="M48.553 56.998V50H27.056l12.12 6.998" class="st1" opacity=".15" coriginal="rgb(35, 31, 32, 1)" colortype="37" awdzp="37" style="fill: rgb(0, 0, 13);"></path></g><path fill="rgb(0, 0, 23)" d="M24 52V40h16v12.032" class="st0" coriginal="rgb(71, 71, 94, 1)" colortype="35" awdzp="35" style="fill: rgb(0, 0, 23);"></path><path fill="rgb(0, 0, 13)" d="M24 52V40h16v12.032" class="st6" opacity=".3" coriginal="rgb(35, 31, 32, 1)" colortype="37" awdzp="37" style="fill: rgb(0, 0, 13);"></path><path fill="rgb(173, 201, 198)" d="M9 15h46v31H9z" class="stshockcolor" data-st="fill:#DE7047;;" coriginal="rgb(117, 162, 216, 1)" colortype="14" awdzp="14" style="fill: rgb(173, 201, 198);"></path><path fill="rgb(0, 0, 13)" d="M55 33.803V15h-3.49L9 39.543V46h24.874" class="st1" opacity=".15" coriginal="rgb(35, 31, 32, 1)" colortype="37" awdzp="37" style="fill: rgb(0, 0, 13);"></path><path fill="rgb(136, 147, 170)" d="M9 46h46V15h-3.49L9 39.543" class="st2" opacity=".1" coriginal="rgb(125, 28, 199, 1)" colortype="26" awdzp="26" style="fill: rgb(136, 147, 170);"></path><path fill="rgb(0, 0, 23)" d="M59 47c0 1.657-1.343 3-3 3H8c-1.657 0-3-1.343-3-3V14c0-1.657 1.343-3 3-3h48c1.657 0 3 1.343 3 3v33zm-5-30c0-.552-.447-1-1-1H11c-.552 0-1 .448-1 1v27c0 .553.448 1 1 1h42c.553 0 1-.447 1-1V17z" class="st0" coriginal="rgb(71, 71, 94, 1)" colortype="35" awdzp="35" style="fill: rgb(0, 0, 23);"></path><path fill="rgb(249, 249, 249)" fill-rule="evenodd" d="M37.993 28h-5.48l1.23-8.4L26.007 33h5.48l-1.23 8.4" class="st5" clip-rule="evenodd" coriginal="rgb(255, 255, 255, 1)" colortype="0" awdzp="0" style="fill: rgb(249, 249, 249);"></path><circle cx="23" cy="22" r="3" fill="rgb(219, 247, 244)" class="st3" coriginal="rgb(247, 201, 11, 1)" colortype="8" awdzp="8" style="fill: rgb(219, 247, 244);"></circle><circle cx="41" cy="39" r="3" fill="rgb(219, 247, 244)" class="st3" coriginal="rgb(247, 201, 11, 1)" colortype="8" awdzp="8" style="fill: rgb(219, 247, 244);"></circle><circle cx="41" cy="22" r="2" fill="rgb(219, 247, 244)" class="st3" coriginal="rgb(247, 201, 11, 1)" colortype="8" awdzp="8" style="fill: rgb(219, 247, 244);"></circle><circle cx="23" cy="39" r="2" fill="rgb(219, 247, 244)" class="st3" coriginal="rgb(247, 201, 11, 1)" colortype="8" awdzp="8" style="fill: rgb(219, 247, 244);"></circle></svg>