<svg xmlns="http://www.w3.org/2000/svg" width="32" height="32" viewBox="0 0 64 64" id="svgid4" repair="1" xmlns:xlink="http://www.w3.org/1999/xlink"><path fill="rgb(0, 0, 23)" d="M19 53h6v3h-6v-3zm30 0h6l-.017 3H49v-3z" class="stshockcolor" data-st="fill:#47475E;;" coriginal="rgb(71, 71, 94, 1)" colortype="35" awdzp="35" style="fill: rgb(0, 0, 23);"></path><path fill="rgb(0, 0, 13)" d="M19 53h6v3h-6v-3zm30 0h6l-.017 3H49v-3z" class="st7 st3" opacity=".3" coriginal="rgb(35, 31, 32, 1)" colortype="37" awdzp="37" style="fill: rgb(0, 0, 13);"></path><path fill="rgb(0, 0, 23)" d="M17.285 8h39.43C58.53 8 60 9.47 60 11.286v39.43C60 52.526 58.53 54 56.715 54h-39.43C15.472 54 14 52.528 14 50.715v-39.43C14 9.472 15.472 8 17.285 8z" class="stshockcolor" data-st="fill:#47475E;;" coriginal="rgb(71, 71, 94, 1)" colortype="35" awdzp="35" style="fill: rgb(0, 0, 23);"></path><defs><path id="MTBteHk3MzMxMDAwMDAwMDAwMHh6czE5Mw" d="M22.833 14h28.333C52.586 14 54 15.417 54 16.833v28.333C54 46.584 52.585 48 51.165 48H22.833C21.417 48 20 46.584 20 45.166V16.833C20 15.417 21.417 14 22.833 14z"></path></defs><use xlink:href="#MTBteHk3MzMxMDAwMDAwMDAwMHh6czE5Mw" opacity=".6" overflow="visible"></use><clipPath id="MTBteHkzODExMDAwMDAwMDAwMHh6czkyMg"><use xlink:href="#MTBteHk3MzMxMDAwMDAwMDAwMHh6czE5Mw" overflow="visible"></use></clipPath><g class="st5" clip-path="url(#MTBteHkzODExMDAwMDAwMDAwMHh6czkyMg)"><path d="M18.167 12H56v12.927L18 46.834" class="st10" opacity=".3"></path></g><path fill="rgb(224, 252, 249)" fill-rule="evenodd" d="M9 37c1.104 0 2 5.76 2 7.312C11 45.866 10.104 46 9 46s-2-.134-2-1.688C7 42.762 7.896 37 9 37z" class="st8" clip-rule="evenodd" coriginal="rgb(147, 193, 207, 1)" colortype="7" awdzp="7" style="fill: rgb(224, 252, 249);"></path><g fill-rule="evenodd" clip-rule="evenodd"><path fill="rgb(224, 252, 249)" d="M3 26h4v8H3z" class="st8" coriginal="rgb(147, 193, 207, 1)" colortype="7" awdzp="7" style="fill: rgb(224, 252, 249);"></path><path fill="rgb(249, 249, 249)" d="M3 26h4v8H3z" class="st1" opacity=".3" coriginal="rgb(255, 255, 255, 1)" colortype="0" awdzp="0" style="fill: rgb(249, 249, 249);"></path></g><path fill="rgb(224, 252, 249)" fill-rule="evenodd" d="M6 24h4v12H6z" class="st8" clip-rule="evenodd" coriginal="rgb(147, 193, 207, 1)" colortype="7" awdzp="7" style="fill: rgb(224, 252, 249);"></path><defs><path id="MTBteHk4ODQxMDAwMDAwMDAwMHh6czYyOA" d="M10.545 14H16l7 4.042V43.96L16 48h-5.455C9.92 48 9 47.083 9 46.455v-30.91C9 14.92 9.92 14 10.545 14z"></path></defs><use fill="rgb(0, 0, 23)" xlink:href="#MTBteHk4ODQxMDAwMDAwMDAwMHh6czYyOA" class="stshockcolor" data-st="fill:#47475E;;" overflow="visible" coriginal="rgb(71, 71, 94, 1)" colortype="35" awdzp="35" style="fill: rgb(0, 0, 23);"></use><clipPath id="MTBteHk4NjAxMDAwMDAwMDAwMHh6czY0Ng"><use xlink:href="#MTBteHk4ODQxMDAwMDAwMDAwMHh6czYyOA" overflow="visible"></use></clipPath><g class="st6" clip-path="url(#MTBteHk4NjAxMDAwMDAwMDAwMHh6czY0Ng)"><path fill="rgb(249, 249, 249)" d="M16 14h7v34h-7z" class="st2" opacity=".15" coriginal="rgb(255, 255, 255, 1)" colortype="0" awdzp="0" style="fill: rgb(249, 249, 249);"></path></g><path fill="rgb(219, 247, 244)" d="M48 48H26l3-7h16m3 0H26l3-7h16" class="st4" coriginal="rgb(247, 201, 11, 1)" colortype="8" awdzp="8" style="fill: rgb(219, 247, 244);"></path><path fill="rgb(136, 147, 170)" d="M48 41H26l3-7h16" class="st9" opacity=".15" coriginal="rgb(125, 28, 199, 1)" colortype="26" awdzp="26" style="fill: rgb(136, 147, 170);"></path><path fill="rgb(219, 247, 244)" d="M48 34H26l3-7h16" class="st4" coriginal="rgb(247, 201, 11, 1)" colortype="8" awdzp="8" style="fill: rgb(219, 247, 244);"></path></svg>