<svg xmlns="http://www.w3.org/2000/svg" width="32" height="32" viewBox="0 0 64 64" id="svgid3" repair="1" xmlns:xlink="http://www.w3.org/1999/xlink"><defs><path id="MTBteHk1ODkxMDAwMDAwMDAwMHh6czQy" d="M32 6c-4 3-9.46 6-15.765 6C8.878 12 6 10 6 10c3 34 4 37 14 43 5 3 12 6 12 6s7-3 12-6c10-6 11-9 14-43 0 0-2.878 2-10.235 2C41.46 12 36 9 32 6z"></path></defs><use fill="rgb(70, 209, 201)" xlink:href="#MTBteHk1ODkxMDAwMDAwMDAwMHh6czQy" class="stshockcolor" data-st="fill:#E0A30A;;overflow:visible;" overflow="visible" coriginal="rgb(224, 163, 10, 1)" colortype="19" awdzp="19" style="fill: rgb(70, 209, 201);"></use><clipPath id="MTBteHk3ODkxMDAwMDAwMDAwMHh6czE1Ng"><use xlink:href="#MTBteHk1ODkxMDAwMDAwMDAwMHh6czQy" overflow="visible"></use></clipPath><g class="st6" clip-path="url(#MTBteHk3ODkxMDAwMDAwMDAwMHh6czE1Ng)"><path fill="rgb(249, 249, 249)" fill-opacity=".2" d="M4.75 2.5h54.417v58.667H4.75z" class="st4" coriginal="rgb(255, 255, 255, 1)" colortype="0" awdzp="0" style="fill: rgb(249, 249, 249);"></path><path fill="rgb(70, 209, 201)" d="M15.72 42h32.56c-1.51 3.506-3.562 4.738-6.853 6.713-3.095 1.856-7.082 3.747-9.427 4.814-2.348-1.07-6.34-2.963-9.428-4.814-3.29-1.975-5.342-3.207-6.852-6.713zm-1.012-3h34.584c.75-2.783 1.376-6.587 2.012-12H12.696c.636 5.413 1.262 9.217 2.012 12z" class="stshockcolor" data-st="fill:#E0A30A;;overflow:visible;" coriginal="rgb(224, 163, 10, 1)" colortype="19" awdzp="19" style="fill: rgb(70, 209, 201);"></path><g class="st2" opacity=".15"><path fill="rgb(136, 147, 170)" d="M32 59H3V41.178L32 24.74" class="st0" coriginal="rgb(125, 28, 199, 1)" colortype="26" awdzp="26" style="fill: rgb(136, 147, 170);"></path><path fill="rgb(0, 0, 13)" d="M32 59H3V41.178L32 24.74" class="st3" opacity=".5" coriginal="rgb(35, 31, 32, 1)" colortype="37" awdzp="37" style="fill: rgb(0, 0, 13);"></path></g><path fill="rgb(249, 249, 249)" fill-opacity=".3" d="M61 4H32v20.74L61 8.303" class="st5" coriginal="rgb(255, 255, 255, 1)" colortype="0" awdzp="0" style="fill: rgb(249, 249, 249);"></path></g></svg>