<svg xmlns="http://www.w3.org/2000/svg" width="32" height="32" viewBox="0 0 64 64" preserveAspectRatio="none" id="svgid5" repair="1" xmlns:xlink="http://www.w3.org/1999/xlink"><defs><path id="MTBteHk4NzIxMDAwMDAwMDAwMHh6czQ3NA" d="M57 50c0 3.313-2.687 6-6 6H13c-3.313 0-6-2.687-6-6V21c0-3.313 2.687-6 6-6h38c3.313 0 6 2.687 6 6v29z"></path></defs><use fill="rgb(85, 224, 216)" xlink:href="#MTBteHk4NzIxMDAwMDAwMDAwMHh6czQ3NA" overflow="visible" coriginal="rgb(166, 166, 159, 1)" colortype="16" awdzp="16" style="fill: rgb(85, 224, 216);"></use><clipPath id="MTBteHk3MzMxMDAwMDAwMDAwMHh6czUzOQ"><use xlink:href="#MTBteHk4NzIxMDAwMDAwMDAwMHh6czQ3NA" overflow="visible"></use></clipPath><g class="st6" clip-path="url(#MTBteHk3MzMxMDAwMDAwMDAwMHh6czUzOQ)"><circle cx="32" cy="41.041" r="26.042" fill="rgb(0, 0, 13)" fill-opacity=".3" class="st10" coriginal="rgb(35, 31, 32, 1)" colortype="37" awdzp="37" style="fill: rgb(0, 0, 13);"></circle></g><defs><path id="MTBteHk4NzMxMDAwMDAwMDAwMHh6czg4Mg" d="M27.9 28.936S14.683 34.318 9.57 39.43C5.506 43.494 3.43 47 3.43 60h57.14c0-13-2.075-16.504-6.143-20.57-5.112-5.112-17.48-10.492-17.48-10.492l-9.05-.002z"></path></defs><use fill="rgb(239, 239, 239)" xlink:href="#MTBteHk4NzMxMDAwMDAwMDAwMHh6czg4Mg" class="stshockcolor" data-st="fill:#DEDCD9;overflow:visible;" overflow="visible" coriginal="rgb(222, 220, 217, 1)" colortype="2" awdzp="2" style="fill: rgb(239, 239, 239);"></use><clipPath id="MTBteHk3MDMxMDAwMDAwMDAwMHh6czc2Mg"><use xlink:href="#MTBteHk4NzMxMDAwMDAwMDAwMHh6czg4Mg" overflow="visible"></use></clipPath><g class="st7" clip-path="url(#MTBteHk3MDMxMDAwMDAwMDAwMHh6czc2Mg)"><path fill="rgb(0, 0, 13)" d="M32 35h29.625v26H32z" class="st0" opacity=".15" coriginal="rgb(35, 31, 32, 1)" colortype="37" awdzp="37" style="fill: rgb(0, 0, 13);"></path></g><path fill="rgb(85, 224, 216)" fill-rule="evenodd" d="M51.063 27.792v5C51.063 41.19 42.528 48 32 48c-10.528 0-19.063-6.81-19.063-15.208 0-1.792.125-5 .125-5h38z" class="st2" clip-rule="evenodd" coriginal="rgb(166, 166, 159, 1)" colortype="16" awdzp="16" style="fill: rgb(85, 224, 216);"></path><defs><path id="MTBteHkyMDMxMDAwMDAwMDAwMHh6czk2" d="M51.063 27.792C51.063 36.19 42.528 43 32 43c-10.528 0-19.063-6.81-19.063-15.208C12.937 27 13 24.84 13 24c0-10.493 8.507-19 19-19 10.494 0 19 8.507 19 19 0 1.083.063 2.5.063 3.792z"></path></defs><use fill="rgb(239, 239, 239)" fill-rule="evenodd" xlink:href="#MTBteHkyMDMxMDAwMDAwMDAwMHh6czk2" class="stshockcolor" data-st="fill:#DEDCD9;overflow:visible;" overflow="visible" clip-rule="evenodd" coriginal="rgb(222, 220, 217, 1)" colortype="2" awdzp="2" style="fill: rgb(239, 239, 239);"></use><clipPath id="MTBteHk4MzgxMDAwMDAwMDAwMHh6czc3Mg"><use xlink:href="#MTBteHkyMDMxMDAwMDAwMDAwMHh6czk2" overflow="visible"></use></clipPath><g class="st8" clip-path="url(#MTBteHk4MzgxMDAwMDAwMDAwMHh6czc3Mg)"><defs><circle id="MTBteHk0NTAxMDAwMDAwMDAwMHh6czY5" cx="32" cy="41.041" r="26.042"></circle></defs><use fill="rgb(0, 0, 23)" fill-rule="evenodd" xlink:href="#MTBteHk0NTAxMDAwMDAwMDAwMHh6czY5" overflow="visible" clip-rule="evenodd" coriginal="rgb(71, 71, 94, 1)" colortype="35" awdzp="35" style="fill: rgb(0, 0, 23);"></use><clipPath id="MTBteHkzODEwMDAwMDAwMDAweHpzMTk1"><use xlink:href="#MTBteHk0NTAxMDAwMDAwMDAwMHh6czY5" overflow="visible"></use></clipPath><g class="st9" clip-path="url(#MTBteHkzODEwMDAwMDAwMDAweHpzMTk1)"><circle cx="24" cy="21" r="8" fill="rgb(214, 242, 239)" fill-opacity=".5" class="st5" coriginal="rgb(217, 147, 173, 1)" colortype="9" awdzp="9" style="fill: rgb(214, 242, 239);"></circle><circle cx="42.5" cy="49.5" r="15.5" fill="rgb(219, 219, 219)" fill-opacity=".3" class="st3" coriginal="rgb(133, 222, 216, 1)" colortype="6" awdzp="6" style="fill: rgb(219, 219, 219);"></circle></g></g><circle cx="45" cy="53" r="5" fill="rgb(0, 0, 23)" fill-rule="evenodd" class="st4" opacity=".7" clip-rule="evenodd" coriginal="rgb(71, 71, 94, 1)" colortype="35" awdzp="35" style="fill: rgb(0, 0, 23);"></circle><path fill="rgb(0, 0, 23)" fill-opacity=".3" fill-rule="evenodd" d="M13 60h-3v-8h3v8zm6-8h-3v8h3v-8zm6 0h-3v8h3v-8z" class="st1" clip-rule="evenodd" coriginal="rgb(71, 71, 94, 1)" colortype="35" awdzp="35" style="fill: rgb(0, 0, 23);"></path></svg>