<svg xmlns="http://www.w3.org/2000/svg" width="32" height="32" viewBox="0 0 64 64" id="svgid25" repair="1" xmlns:xlink="http://www.w3.org/1999/xlink"><defs><path id="MTBteHk1NjExMDAwMDAwMDAwMHh6czc1MA" d="M14.92 30.72L5.4 35.483c-2.167 1.083-2.608 2.732-3.04 6.727L32 59.32l29.64-17.112c-.433-3.994-.874-5.644-3.04-6.727l-9.52-4.76H14.92z"></path></defs><use fill="rgb(0, 0, 23)" xlink:href="#MTBteHk1NjExMDAwMDAwMDAwMHh6czc1MA" class="st22" overflow="visible" coriginal="rgb(71, 71, 94, 1)" colortype="35" awdzp="35" style="fill: rgb(0, 0, 23);"></use><clipPath id="MTBteHk5MTAwMDAwMDAwMDB4enM3MDQ"><use xlink:href="#MTBteHk1NjExMDAwMDAwMDAwMHh6czc1MA" overflow="visible"></use></clipPath><g class="st3" clip-path="url(#MTBteHk5MTAwMDAwMDAwMDB4enM3MDQ)"><path fill="rgb(0, 0, 13)" d="M18.955 30.72H61.64v28.6H18.955z" class="st21" opacity=".3" coriginal="rgb(35, 31, 32, 1)" colortype="37" awdzp="37" style="fill: rgb(0, 0, 13);"></path></g><defs><path id="MTBteHkxNDIxMDAwMDAwMDAwMHh6czI2Mw" d="M18.986 45.2c-4.86-6.78-5.555-10.85-5.555-13.562v-5.424h11.12v5.424c0 2.714-.69 6.783-5.55 13.563z"></path></defs><use fill="rgb(239, 239, 239)" xlink:href="#MTBteHkxNDIxMDAwMDAwMDAwMHh6czI2Mw" class="st23" overflow="visible" coriginal="rgb(222, 220, 217, 1)" colortype="2" awdzp="2" style="fill: rgb(239, 239, 239);"></use><clipPath id="MTBteHk0ODYxMDAwMDAwMDAwMHh6czYzMw"><use xlink:href="#MTBteHkxNDIxMDAwMDAwMDAwMHh6czI2Mw" overflow="visible"></use></clipPath><g class="st4" clip-path="url(#MTBteHk0ODYxMDAwMDAwMDAwMHh6czYzMw)"><defs><path id="MTBteHk4MTExMDAwMDAwMDAwMHh6czQxNg" d="M26.215 45.2L19 33v-.023L11.784 45.18H19v.02z"></path></defs><use fill="rgb(0, 0, 13)" xlink:href="#MTBteHk4MTExMDAwMDAwMDAwMHh6czQxNg" overflow="visible" opacity=".15" coriginal="rgb(35, 31, 32, 1)" colortype="37" awdzp="37" style="fill: rgb(0, 0, 13);"></use><clipPath id="MTBteHk2MTYxMDAwMDAwMDAwMHh6czk0Nw"><use xlink:href="#MTBteHk4MTExMDAwMDAwMDAwMHh6czQxNg" overflow="visible"></use></clipPath><g class="st5" clip-path="url(#MTBteHk2MTYxMDAwMDAwMDAwMHh6czk0Nw)"><path fill="rgb(173, 201, 198)" d="M15.514 45.88l2.623-8.14-3.316-5.423h8.34l-3.47 5.424 2.78 8.14h-6.95z" class="st0" coriginal="rgb(117, 162, 216, 1)" colortype="14" awdzp="14" style="fill: rgb(173, 201, 198);"></path><path fill="rgb(0, 0, 13)" d="M15.514 45.88l2.623-8.14-3.316-5.423h8.34l-3.47 5.424 2.78 8.14h-6.95z" class="st10 st11" opacity=".3" coriginal="rgb(35, 31, 32, 1)" colortype="37" awdzp="37" style="fill: rgb(0, 0, 13);"></path></g></g><defs><path id="MTBteHkxODQxMDAwMDAwMDAwMHh6czU2OQ" d="M19 9c7.16 0 9 5.134 9 9v5.608C28 27.688 24.156 33 19 33s-9-5.313-9-9.392v-5.565C10 14.177 11.838 9 19 9z"></path></defs><use fill="rgb(219, 219, 219)" xlink:href="#MTBteHkxODQxMDAwMDAwMDAwMHh6czU2OQ" class="stshockcolor" data-st="fill:#85DED8;;overflow:visible;" overflow="visible" coriginal="rgb(133, 222, 216, 1)" colortype="6" awdzp="6" style="fill: rgb(219, 219, 219);"></use><clipPath id="MTBteHk1MTQxMDAwMDAwMDAwMHh6czM0Ng"><use xlink:href="#MTBteHkxODQxMDAwMDAwMDAwMHh6czU2OQ" overflow="visible"></use></clipPath><g class="st6" clip-path="url(#MTBteHk1MTQxMDAwMDAwMDAwMHh6czM0Ng)"><path fill="rgb(151, 162, 185)" d="M10 9h18v24H10z" class="st13" opacity=".07" coriginal="rgb(105, 88, 219, 1)" colortype="23" awdzp="23" style="fill: rgb(151, 162, 185);"></path><path d="M10 9h18v24H10z" class="st8" opacity=".1"></path><path fill="rgb(249, 249, 249)" d="M19 19.078V9h-9v11.805L19 26" class="st1" opacity=".3" coriginal="rgb(255, 255, 255, 1)" colortype="0" awdzp="0" style="fill: rgb(249, 249, 249);"></path></g><ellipse cx="15.21" cy="21.205" fill="rgb(0, 0, 13)" fill-opacity=".6" class="st12" rx="1.033" ry="1.378" coriginal="rgb(35, 31, 32, 1)" colortype="37" awdzp="37" style="fill: rgb(0, 0, 13);"></ellipse><ellipse cx="22.788" cy="21.205" fill="rgb(0, 0, 13)" fill-opacity=".6" class="st12" rx="1.033" ry="1.378" coriginal="rgb(35, 31, 32, 1)" colortype="37" awdzp="37" style="fill: rgb(0, 0, 13);"></ellipse><defs><path id="MTBteHkxNjUxMDAwMDAwMDAwMHh6czE2Ng" d="M44.986 45.2c-4.86-6.78-5.555-10.85-5.555-13.562v-5.424h11.12v5.424c0 2.714-.69 6.783-5.55 13.563z"></path></defs><use fill="rgb(239, 239, 239)" xlink:href="#MTBteHkxNjUxMDAwMDAwMDAwMHh6czE2Ng" class="st23" overflow="visible" coriginal="rgb(222, 220, 217, 1)" colortype="2" awdzp="2" style="fill: rgb(239, 239, 239);"></use><clipPath id="MTBteHk5ODgxMDAwMDAwMDAwMHh6czYyOQ"><use xlink:href="#MTBteHkxNjUxMDAwMDAwMDAwMHh6czE2Ng" overflow="visible"></use></clipPath><g class="st14" clip-path="url(#MTBteHk5ODgxMDAwMDAwMDAwMHh6czYyOQ)"><defs><path id="MTBteHk2NTEwMDAwMDAwMDAweHpzNjU1" d="M52.215 45.2L45 33v-.023L37.784 45.18H45v.02z"></path></defs><use fill="rgb(0, 0, 13)" xlink:href="#MTBteHk2NTEwMDAwMDAwMDAweHpzNjU1" overflow="visible" opacity=".15" coriginal="rgb(35, 31, 32, 1)" colortype="37" awdzp="37" style="fill: rgb(0, 0, 13);"></use><clipPath id="MTBteHkxOTkxMDAwMDAwMDAwMHh6czQ3NQ"><use xlink:href="#MTBteHk2NTEwMDAwMDAwMDAweHpzNjU1" overflow="visible"></use></clipPath><g class="st15" clip-path="url(#MTBteHkxOTkxMDAwMDAwMDAwMHh6czQ3NQ)"><path fill="rgb(173, 201, 198)" d="M41.514 45.88l2.623-8.14-3.316-5.423h8.34l-3.47 5.424 2.78 8.14h-6.95z" class="st0" coriginal="rgb(117, 162, 216, 1)" colortype="14" awdzp="14" style="fill: rgb(173, 201, 198);"></path><path fill="rgb(0, 0, 13)" d="M41.514 45.88l2.623-8.14-3.316-5.423h8.34l-3.47 5.424 2.78 8.14h-6.95z" class="st10 st11" opacity=".3" coriginal="rgb(35, 31, 32, 1)" colortype="37" awdzp="37" style="fill: rgb(0, 0, 13);"></path></g></g><defs><path id="MTBteHk2NzAxMDAwMDAwMDAwMHh6czk1OQ" d="M45 9c7.16 0 9 5.134 9 9v5.608C54 27.688 50.156 33 45 33s-9-5.313-9-9.392v-5.565C36 14.177 37.838 9 45 9z"></path></defs><use fill="rgb(219, 219, 219)" xlink:href="#MTBteHk2NzAxMDAwMDAwMDAwMHh6czk1OQ" class="stshockcolor" data-st="fill:#85DED8;;overflow:visible;" overflow="visible" coriginal="rgb(133, 222, 216, 1)" colortype="6" awdzp="6" style="fill: rgb(219, 219, 219);"></use><clipPath id="MTBteHk4NzEwMDAwMDAwMDAweHpzNzc"><use xlink:href="#MTBteHk2NzAxMDAwMDAwMDAwMHh6czk1OQ" overflow="visible"></use></clipPath><g class="st16" clip-path="url(#MTBteHk4NzEwMDAwMDAwMDAweHpzNzc)"><path fill="rgb(151, 162, 185)" d="M36 9h18v24H36z" class="st2" opacity=".15" coriginal="rgb(105, 88, 219, 1)" colortype="23" awdzp="23" style="fill: rgb(151, 162, 185);"></path><path d="M36 9h18v24H36z" class="st9" opacity=".2"></path><path fill="rgb(249, 249, 249)" d="M45 19.078V9h-9v11.805L45 26" class="st1" opacity=".3" coriginal="rgb(255, 255, 255, 1)" colortype="0" awdzp="0" style="fill: rgb(249, 249, 249);"></path></g><ellipse cx="41.21" cy="21.205" fill="rgb(0, 0, 13)" fill-opacity=".6" class="st12" rx="1.033" ry="1.378" coriginal="rgb(35, 31, 32, 1)" colortype="37" awdzp="37" style="fill: rgb(0, 0, 13);"></ellipse><ellipse cx="48.788" cy="21.205" fill="rgb(0, 0, 13)" fill-opacity=".6" class="st12" rx="1.033" ry="1.378" coriginal="rgb(35, 31, 32, 1)" colortype="37" awdzp="37" style="fill: rgb(0, 0, 13);"></ellipse><defs><path id="MTBteHkxMjcxMDAwMDAwMDAwMHh6czMyNg" d="M27.92 38.72l-9.52 4.762c-2.104 1.052-2.58 2.292-3.004 6.254L32 59.32l16.603-9.585c-.423-3.962-.9-5.202-3.004-6.254l-9.52-4.76h-8.16z"></path></defs><use fill="rgb(0, 0, 23)" xlink:href="#MTBteHkxMjcxMDAwMDAwMDAwMHh6czMyNg" class="st22" overflow="visible" coriginal="rgb(71, 71, 94, 1)" colortype="35" awdzp="35" style="fill: rgb(0, 0, 23);"></use><clipPath id="MTBteHkzNzExMDAwMDAwMDAwMHh6czE4OA"><use xlink:href="#MTBteHkxMjcxMDAwMDAwMDAwMHh6czMyNg" overflow="visible"></use></clipPath><g class="st17" clip-path="url(#MTBteHkzNzExMDAwMDAwMDAwMHh6czE4OA)"><path fill="rgb(249, 249, 249)" d="M15 34h16.954v27.042H15z" class="st7" opacity=".2" coriginal="rgb(255, 255, 255, 1)" colortype="0" awdzp="0" style="fill: rgb(249, 249, 249);"></path></g><defs><path id="MTBteHkyMDIxMDAwMDAwMDAwMHh6czQyMA" d="M31.986 53.2c-4.86-6.78-5.555-10.85-5.555-13.562v-5.424h11.12v5.424c0 2.714-.69 6.783-5.55 13.563z"></path></defs><use fill="rgb(239, 239, 239)" xlink:href="#MTBteHkyMDIxMDAwMDAwMDAwMHh6czQyMA" class="st23" overflow="visible" coriginal="rgb(222, 220, 217, 1)" colortype="2" awdzp="2" style="fill: rgb(239, 239, 239);"></use><clipPath id="MTBteHk3NTQxMDAwMDAwMDAwMHh6czQ0"><use xlink:href="#MTBteHkyMDIxMDAwMDAwMDAwMHh6czQyMA" overflow="visible"></use></clipPath><g class="st18" clip-path="url(#MTBteHk3NTQxMDAwMDAwMDAwMHh6czQ0)"><defs><path id="MTBteHk0NjUxMDAwMDAwMDAwMHh6czIwNg" d="M39.215 53.2L32 41v-.023L24.784 53.18H32v.02z"></path></defs><use xlink:href="#MTBteHk0NjUxMDAwMDAwMDAwMHh6czIwNg" overflow="visible" opacity=".15"></use><clipPath id="MTBteHk0MTExMDAwMDAwMDAwMHh6czU3OA"><use xlink:href="#MTBteHk0NjUxMDAwMDAwMDAwMHh6czIwNg" overflow="visible"></use></clipPath><g class="st19" clip-path="url(#MTBteHk0MTExMDAwMDAwMDAwMHh6czU3OA)"><path fill="rgb(173, 201, 198)" d="M28.514 53.88l2.623-8.14-3.316-5.423h8.34l-3.47 5.424 2.78 8.14h-6.95z" class="st0" coriginal="rgb(117, 162, 216, 1)" colortype="14" awdzp="14" style="fill: rgb(173, 201, 198);"></path><path fill="rgb(0, 0, 13)" d="M28.514 53.88l2.623-8.14-3.316-5.423h8.34l-3.47 5.424 2.78 8.14h-6.95z" class="st10 st11" opacity=".3" coriginal="rgb(35, 31, 32, 1)" colortype="37" awdzp="37" style="fill: rgb(0, 0, 13);"></path></g></g><defs><path id="MTBteHk3ODUxMDAwMDAwMDAwMHh6czEzMA" d="M32 17c7.16 0 9 5.134 9 9v5.608C41 35.688 37.156 41 32 41s-9-5.313-9-9.392v-5.565C23 22.177 24.838 17 32 17z"></path></defs><use fill="rgb(219, 219, 219)" xlink:href="#MTBteHk3ODUxMDAwMDAwMDAwMHh6czEzMA" class="stshockcolor" data-st="fill:#85DED8;;overflow:visible;" overflow="visible" coriginal="rgb(133, 222, 216, 1)" colortype="6" awdzp="6" style="fill: rgb(219, 219, 219);"></use><clipPath id="MTBteHkzMjgxMDAwMDAwMDAwMHh6czQ0MQ"><use xlink:href="#MTBteHk3ODUxMDAwMDAwMDAwMHh6czEzMA" overflow="visible"></use></clipPath><g class="st20" clip-path="url(#MTBteHkzMjgxMDAwMDAwMDAwMHh6czQ0MQ)"><path fill="rgb(249, 249, 249)" d="M32 27.078V17h-9v11.805L32 34" class="st1" opacity=".3" coriginal="rgb(255, 255, 255, 1)" colortype="0" awdzp="0" style="fill: rgb(249, 249, 249);"></path></g><ellipse cx="28.21" cy="29.205" fill="rgb(0, 0, 13)" fill-opacity=".6" class="st12" rx="1.033" ry="1.378" coriginal="rgb(35, 31, 32, 1)" colortype="37" awdzp="37" style="fill: rgb(0, 0, 13);"></ellipse><ellipse cx="35.788" cy="29.205" fill="rgb(0, 0, 13)" fill-opacity=".6" class="st12" rx="1.033" ry="1.378" coriginal="rgb(35, 31, 32, 1)" colortype="37" awdzp="37" style="fill: rgb(0, 0, 13);"></ellipse></svg>