<svg xmlns="http://www.w3.org/2000/svg" width="32" height="32" viewBox="0 0 64 64" id="svgid15" repair="1" xmlns:xlink="http://www.w3.org/1999/xlink"><path fill="rgb(65, 204, 196)" fill-rule="evenodd" d="M16 40c0 1.104-.896 2-2 2h-3c-1.104 0-2-.896-2-2V21c0-1.104.896-2 2-2h3c1.104 0 2 .896 2 2v19z" class="st4" clip-rule="evenodd" coriginal="rgb(188, 113, 158, 1)" colortype="20" awdzp="20" style="fill: rgb(65, 204, 196);"></path><path fill="rgb(3, 8, 33)" d="M48.427 24.58H23.573l5.192-8.993C29.27 14.71 30.392 14 31.27 14h9.462c.877 0 1.996.71 2.503 1.587l5.192 8.993z" class="stshockcolor" data-st="fill:#565668;;" coriginal="rgb(86, 86, 104, 1)" colortype="33" awdzp="33" style="fill: rgb(3, 8, 33);"></path><path fill="rgb(249, 249, 249)" d="M48.427 24.58H23.573l5.192-8.993C29.27 14.71 30.392 14 31.27 14h9.462c.877 0 1.996.71 2.503 1.587l5.192 8.993z" class="st2" opacity=".5" coriginal="rgb(255, 255, 255, 1)" colortype="0" awdzp="0" style="fill: rgb(249, 249, 249);"></path><defs><path id="MTBteHk2NDkxMDAwMDAwMDAwMHh6czU2NA" d="M56 22.228c1.52.663 3 1.343 3 3V47c0 1.657-1.343 3-3 3H8c-1.657 0-3-1.343-3-3V25.228c0-1.657 1.366-2.688 2.993-3l15.717-3s23.125-1 32.29 3z"></path></defs><use fill="rgb(3, 8, 33)" xlink:href="#MTBteHk2NDkxMDAwMDAwMDAwMHh6czU2NA" class="stshockcolor" data-st="fill:#565668;;overflow:visible;" overflow="visible" colortype="33" coriginal="rgb(86, 86, 104, 1)" awdzp="33" style="fill: rgb(3, 8, 33);"></use><clipPath id="MTBteHkyNTMxMDAwMDAwMDAwMHh6czIxNg"><use xlink:href="#MTBteHk2NDkxMDAwMDAwMDAwMHh6czU2NA" overflow="visible"></use></clipPath><path d="M59.094 50H31.38l-5.773-10 20.786-12" class="st7" opacity=".25" clip-path="url(#MTBteHkyNTMxMDAwMDAwMDAwMHh6czIxNg)"></path><g class="st3" clip-path="url(#MTBteHkyNTMxMDAwMDAwMDAwMHh6czIxNg)"><circle cx="36" cy="34" r="12" fill="rgb(3, 8, 33)" class="stshockcolor" data-st="fill:#565668;;" colortype="33" coriginal="rgb(86, 86, 104, 1)" awdzp="33" style="fill: rgb(3, 8, 33);"></circle><circle cx="36" cy="34" r="12" fill="rgb(249, 249, 249)" class="st2" opacity=".5" coriginal="rgb(255, 255, 255, 1)" colortype="0" awdzp="0" style="fill: rgb(249, 249, 249);"></circle></g><g class="st3" clip-path="url(#MTBteHkyNTMxMDAwMDAwMDAwMHh6czIxNg)"><path fill="rgb(173, 201, 198)" d="M42 34c0 3.313-2.69 6-6 6-3.313 0-6-2.688-6-6 0-3.313 2.688-6 6-6 3.31 0 6 2.687 6 6z" class="st5" coriginal="rgb(117, 162, 216, 1)" colortype="14" awdzp="14" style="fill: rgb(173, 201, 198);"></path><path fill="rgb(0, 0, 13)" d="M42 34c0 3.313-2.69 6-6 6-3.313 0-6-2.688-6-6 0-3.313 2.688-6 6-6 3.31 0 6 2.687 6 6z" class="st6" opacity=".3" coriginal="rgb(35, 31, 32, 1)" colortype="37" awdzp="37" style="fill: rgb(0, 0, 13);"></path></g><g class="st3" clip-path="url(#MTBteHkyNTMxMDAwMDAwMDAwMHh6czIxNg)"><defs><path id="MTBteHk4MzkxMDAwMDAwMDAwMHh6czcxNg" d="M42 34c0 3.313-2.69 6-6 6-3.313 0-6-2.688-6-6 0-3.313 2.688-6 6-6 3.31 0 6 2.687 6 6z"></path></defs><clipPath id="MTBteHkzMjMxMDAwMDAwMDAwMHh6czI4OQ"><use xlink:href="#MTBteHk4MzkxMDAwMDAwMDAwMHh6czcxNg" overflow="visible"></use></clipPath><path d="M42 28H30v9.464l12-6.928" class="st8" opacity=".25" clip-path="url(#MTBteHkzMjMxMDAwMDAwMDAwMHh6czI4OQ)"></path></g><path fill="rgb(249, 249, 249)" d="M16 50H9V21c0-1.104.896-2 2-2h3c1.104 0 2 .896 2 2v29z" class="st0" opacity=".25" clip-path="url(#MTBteHkyNTMxMDAwMDAwMDAwMHh6czIxNg)" coriginal="rgb(255, 255, 255, 1)" colortype="0" awdzp="0" style="fill: rgb(249, 249, 249);"></path></svg>