<svg xmlns="http://www.w3.org/2000/svg" width="32" height="32" viewBox="0 0 64 64" id="svgid12" repair="1" xmlns:xlink="http://www.w3.org/1999/xlink"><path fill="rgb(224, 224, 224)" d="M34.083 46.263L58.75 60.396 46.263 39.23" class="stshockcolor" data-st="fill:#AFCBE2;;" coriginal="rgb(175, 203, 226, 1)" colortype="5" awdzp="5" style="fill: rgb(224, 224, 224);"></path><defs><path id="MTBteHkyMTAwMDAwMDAwMDB4enM4MjY" d="M60 49c0 1.657-1.343 3-3 3H7c-1.657 0-3-1.343-3-3V14c0-1.657 1.343-3 3-3h50c1.657 0 3 1.343 3 3v35z"></path></defs><use fill="rgb(224, 224, 224)" xlink:href="#MTBteHkyMTAwMDAwMDAwMDB4enM4MjY" class="stshockcolor" data-st="fill:#AFCBE2;;" overflow="visible" coriginal="rgb(175, 203, 226, 1)" colortype="5" awdzp="5" style="fill: rgb(224, 224, 224);"></use><clipPath id="MTBteHk2OTAxMDAwMDAwMDAwMHh6czEyNg"><use xlink:href="#MTBteHkyMTAwMDAwMDAwMDB4enM4MjY" overflow="visible"></use></clipPath><g class="st2" opacity=".3" clip-path="url(#MTBteHk2OTAxMDAwMDAwMDAwMHh6czEyNg)"><path fill="rgb(249, 249, 249)" d="M4 11v41h23.773l-6.258-3.613L40.813 14.97 60 26.05V11" class="st6" coriginal="rgb(255, 255, 255, 1)" colortype="0" awdzp="0" style="fill: rgb(249, 249, 249);"></path></g><g class="st4" clip-path="url(#MTBteHk2OTAxMDAwMDAwMDAwMHh6czEyNg)"><defs><path id="MTBteHk4MjYxMDAwMDAwMDAwMHh6czQ1Ng" d="M32.785 42.473s10.03-17.368 11-19.05c.972-1.683 1.443-5.9-2.977-8.453-4.42-2.552-7.837-.034-8.81 1.648C31.03 18.3 21 35.67 21 35.67v11.316c0 1.47.71 1.88 1.985 1.147 1.275-.738 7.216-4.166 9.8-5.66z"></path></defs><use fill="rgb(209, 237, 234)" xlink:href="#MTBteHk4MjYxMDAwMDAwMDAwMHh6czQ1Ng" class="st10" overflow="visible" coriginal="rgb(233, 191, 84, 1)" colortype="10" awdzp="10" style="fill: rgb(209, 237, 234);"></use><clipPath id="MTBteHk5OTcxMDAwMDAwMDAwMHh6czU0NA"><use xlink:href="#MTBteHk4MjYxMDAwMDAwMDAwMHh6czQ1Ng" overflow="visible"></use></clipPath><g class="st5" clip-path="url(#MTBteHk5OTcxMDAwMDAwMDAwMHh6czU0NA)"><path fill="rgb(249, 249, 249)" fill-opacity=".5" d="M20.98 35.657l11.827 6.83L27.43 51.8 15.6 44.97z" class="st3" coriginal="rgb(255, 255, 255, 1)" colortype="0" awdzp="0" style="fill: rgb(249, 249, 249);"></path><path fill="rgb(0, 0, 13)" fill-opacity=".6" d="M20.014 42.79l7.096 4.1-2.05 3.547-7.095-4.098z" class="st7" coriginal="rgb(35, 31, 32, 1)" colortype="37" awdzp="37" style="fill: rgb(0, 0, 13);"></path><path fill="rgb(239, 239, 239)" d="M30.163 18.286l13.094 7.56-3.414 5.914-13.095-7.56z" class="st9" coriginal="rgb(222, 220, 217, 1)" colortype="2" awdzp="2" style="fill: rgb(239, 239, 239);"></path><path fill="rgb(146, 157, 180)" d="M34.916 11.567l11.786 6.806-4.098 7.097-11.787-6.806z" class="st8" coriginal="rgb(221, 112, 71, 1)" colortype="24" awdzp="24" style="fill: rgb(146, 157, 180);"></path><path fill="rgb(0, 0, 13)" d="M40.81 14.97l5.915 3.414L27.43 51.8l-5.914-3.414z" class="st1" opacity=".15" coriginal="rgb(35, 31, 32, 1)" colortype="37" awdzp="37" style="fill: rgb(0, 0, 13);"></path></g></g></svg>