<svg xmlns="http://www.w3.org/2000/svg" width="32" height="32" viewBox="0 0 64 64" id="svgid20" repair="1" xmlns:xlink="http://www.w3.org/1999/xlink"><path fill="rgb(75, 214, 206)" fill-rule="evenodd" d="M53.23 41c1.208 0 2.386 1.81 1.405 4.19C53.473 48.016 51 48 49 48H15s-4.472.016-5.636-2.81c-.98-2.38.198-4.19 1.407-4.19h42.46z" class="st0" clip-rule="evenodd" coriginal="rgb(217, 154, 87, 1)" colortype="18" awdzp="18" style="fill: rgb(75, 214, 206);"></path><path fill="rgb(8, 13, 38)" d="M53.5 42c1.934 0 3.5-1.567 3.5-3.5S55.434 35 53.5 35c-1.5 0-41.5.013-43 0-1.933-.017-3.5 1.567-3.5 3.5S8.567 42 10.5 42h43z" class="stshockcolor" data-st="fill:#834C38;;" coriginal="rgb(131, 76, 56, 1)" colortype="32" awdzp="32" style="fill: rgb(8, 13, 38);"></path><path fill="rgb(0, 0, 0)" fill-rule="evenodd" d="M16.155 48H40.59l-7.507-13H8.65" class="st1" opacity=".1" clip-rule="evenodd" coriginal="rgb(12, 6, 0, 1)" colortype="38" awdzp="38" style="fill: rgb(0, 0, 0);"></path><path fill="rgb(199, 227, 224)" fill-rule="evenodd" d="M33.125 35c-1.625 0-2.322.164-3.28.717L16 43.732c-.957.552-2.18.225-2.732-.732l-4.05-7.017-.95-1.643c-.552-.957.19-2.34 1.295-2.34H54c1.105 0 1.938.48 1.938 1.584S54.9 35 54 35H33.125z" class="st3" clip-rule="evenodd" coriginal="rgb(234, 184, 40, 1)" colortype="12" awdzp="12" style="fill: rgb(199, 227, 224);"></path><defs><path id="MTBteHk4ODIxMDAwMDAwMDAwMHh6czc2MQ" d="M10 24h44v8H10z"></path></defs><use fill="rgb(42, 181, 173)" xlink:href="#MTBteHk4ODIxMDAwMDAwMDAwMHh6czc2MQ" overflow="visible" coriginal="rgb(222, 112, 71, 1)" colortype="22" awdzp="22" style="fill: rgb(42, 181, 173);"></use><clipPath id="MTBteHk0NDIxMDAwMDAwMDAwMHh6czI3NA"><use xlink:href="#MTBteHk4ODIxMDAwMDAwMDAwMHh6czc2MQ" overflow="visible"></use></clipPath><path fill="rgb(0, 0, 0)" fill-rule="evenodd" d="M29.618 29H10v3h21.35" class="st6" opacity=".15" clip-path="url(#MTBteHk0NDIxMDAwMDAwMDAwMHh6czI3NA)" clip-rule="evenodd" coriginal="rgb(12, 6, 0, 1)" colortype="38" awdzp="38" style="fill: rgb(0, 0, 0);"></path><path fill="rgb(75, 214, 206)" fill-rule="evenodd" d="M54 29c2 0 2.164-2.014 2-3-1-6-8-12-24-12S9 20 8 26c-.165.986 0 3 2 3h44z" class="st0" clip-rule="evenodd" coriginal="rgb(217, 154, 87, 1)" colortype="18" awdzp="18" style="fill: rgb(75, 214, 206);"></path><path fill="rgb(249, 249, 249)" d="M33.908 22.09c0 1.056-.853 1.91-1.908 1.91-1.054 0-1.91-.854-1.91-1.91S30.527 20.553 32 18c1.482 2.567 1.908 3.037 1.908 4.09zm-14.606-1.5c-.527.912-.214 2.08.698 2.606.913.527 2.08.215 2.607-.698.528-.914.394-1.55.393-4.498-2.566 1.482-3.17 1.676-3.698 2.59zM41 18c0 2.947-.135 3.584.393 4.498.526.913 1.694 1.226 2.607.698.912-.527 1.226-1.694.698-2.607S43.566 19.48 41 18z" class="st2" opacity=".5" coriginal="rgb(255, 255, 255, 1)" colortype="0" awdzp="0" style="fill: rgb(249, 249, 249);"></path></svg>