<svg xmlns="http://www.w3.org/2000/svg" width="32" height="32" viewBox="0 0 64 64" id="svgid19" repair="1" xmlns:xlink="http://www.w3.org/1999/xlink"><defs><path id="MTBteHkxMjkxMDAwMDAwMDAwMHh6czc1MQ" d="M46 23h8s5 2 5 13-3 13-5 13h-8v-5h6s2-2 2-8-1-8-2-8h-6v-5z"></path></defs><use fill="rgb(219, 247, 244)" xlink:href="#MTBteHkxMjkxMDAwMDAwMDAwMHh6czc1MQ" class="stshockcolor" data-st="fill:#F7C90B;;overflow:visible;" overflow="visible" coriginal="rgb(247, 201, 11, 1)" colortype="8" awdzp="8" style="fill: rgb(219, 247, 244);"></use><clipPath id="MTBteHk2MDAxMDAwMDAwMDAwMHh6czQ3NQ"><use xlink:href="#MTBteHkxMjkxMDAwMDAwMDAwMHh6czc1MQ" overflow="visible"></use></clipPath><g class="st2" clip-path="url(#MTBteHk2MDAxMDAwMDAwMDAwMHh6czQ3NQ)"><path fill="rgb(249, 249, 249)" fill-opacity=".3" d="M59 23H47.083L59 43.64" class="st1" coriginal="rgb(255, 255, 255, 1)" colortype="0" awdzp="0" style="fill: rgb(249, 249, 249);"></path></g><defs><path id="MTBteHk4NDQxMDAwMDAwMDAwMHh6czI3NQ" d="M45.206 59c2.003 0 3.91-1.907 3.91-3.813C49.116 53.28 47 50 47 21c0-1.907-1.093-3-3-3H18c-1.907 0-3 1.093-3 3 0 29-2.116 32.28-2.116 34.187 0 1.906 1.907 3.813 3.91 3.813h28.412z"></path></defs><use fill="rgb(219, 247, 244)" xlink:href="#MTBteHk4NDQxMDAwMDAwMDAwMHh6czI3NQ" class="stshockcolor" data-st="fill:#F7C90B;;overflow:visible;" overflow="visible" coriginal="rgb(247, 201, 11, 1)" colortype="8" awdzp="8" style="fill: rgb(219, 247, 244);"></use><clipPath id="MTBteHkzNDExMDAwMDAwMDAwMHh6czUx"><use xlink:href="#MTBteHk4NDQxMDAwMDAwMDAwMHh6czI3NQ" overflow="visible"></use></clipPath><g class="st3" clip-path="url(#MTBteHkzNDExMDAwMDAwMDAwMHh6czUx)"><use fill="rgb(136, 147, 170)" xlink:href="#574940097_SVGID_5__focus" class="st4" opacity=".07" overflow="visible" coriginal="rgb(125, 28, 199, 1)" colortype="26" awdzp="26" style="fill: rgb(136, 147, 170);"></use><use xlink:href="#574940097_SVGID_5__focus" opacity=".07" overflow="visible"></use><path fill="rgb(249, 249, 249)" fill-opacity=".3" d="M42.283 59H50V20H19.767" class="st1" coriginal="rgb(255, 255, 255, 1)" colortype="0" awdzp="0" style="fill: rgb(249, 249, 249);"></path></g><path fill="rgb(244, 244, 244)" d="M48.25 11.75C44 8.063 39.022 9.02 36.195 10.653c-4.195-5.028-12.112-4.82-15.778.514-4.334-2-7.838-1.272-9.417.833-2.25 3 .17 7.496 0 10.537-.15 2.653-1.53 10.415-1.66 12.62-.018.164-.027.33-.027.5 0 2.397 1.945 4.343 4.344 4.343S18 38.055 18 35.656V23c0-1.914 1-3 3-3h25.35s4.898-5.65 1.9-8.25z" class="st0" coriginal="rgb(230, 230, 230, 1)" colortype="1" awdzp="1" style="fill: rgb(244, 244, 244);"></path></svg>