<svg xmlns="http://www.w3.org/2000/svg" width="32" height="32" viewBox="0 0 64 64" id="svgid13" repair="1" xmlns:xlink="http://www.w3.org/1999/xlink"><defs><path id="MTBteHk0MTMxMDAwMDAwMDAwMHh6czQ1OQ" d="M15.157 15.717c-2.408 4.172-2.327 9.098-.215 13.057 1.142 2.142 1.034 2.967 3.29 4.27 5.345 3.085 15.883 3.597 15.883 3.597l4.32-7.48c3.71-6.43 1.51-14.65-4.92-18.36-6.425-3.71-14.645-1.51-18.358 4.92z"></path></defs><use fill="rgb(219, 247, 244)" xlink:href="#MTBteHk0MTMxMDAwMDAwMDAwMHh6czQ1OQ" class="stshockcolor" data-st="fill:#F7C90B;;overflow:visible;" overflow="visible" coriginal="rgb(247, 201, 11, 1)" colortype="8" awdzp="8" style="fill: rgb(219, 247, 244);"></use><clipPath id="MTBteHk2OTYxMDAwMDAwMDAwMHh6czUx"><use xlink:href="#MTBteHk0MTMxMDAwMDAwMDAwMHh6czQ1OQ" overflow="visible"></use></clipPath><g class="st3" clip-path="url(#MTBteHk2OTYxMDAwMDAwMDAwMHh6czUx)"><path fill="rgb(249, 249, 249)" d="M25.536 20.394l-7.303 12.65c-2.69 4.656-10.17-4.553-7.483-9.21 1.462-2.532 2.604-14.838 12.254-15.917C38.964 6.133 44.06 22.883 42.1 19.904c-.807-1.226-1.904-2.288-3.263-3.072-4.656-2.69-10.613-1.094-13.3 3.562z" class="st1" opacity=".3" coriginal="rgb(255, 255, 255, 1)" colortype="0" awdzp="0" style="fill: rgb(249, 249, 249);"></path></g><defs><path id="MTBteHk5NTkxMDAwMDAwMDAwMHh6czkx" d="M52.406 28.23l-2.778 4.813H18.233s-1.977 3.43-2.857 4.948c-1.023 1.77-1.61 3.82-1.61 6.01 0 6.63 5.374 12 12 12 3.585 0 16.62-.01 19.123 0 5.16.03 10.19-2.64 12.96-7.44 4.11-7.12 1.67-16.22-5.45-20.32z"></path></defs><use fill="rgb(219, 247, 244)" xlink:href="#MTBteHk5NTkxMDAwMDAwMDAwMHh6czkx" class="stshockcolor" data-st="fill:#F7C90B;;overflow:visible;" overflow="visible" coriginal="rgb(247, 201, 11, 1)" colortype="8" awdzp="8" style="fill: rgb(219, 247, 244);"></use><clipPath id="MTBteHk0NzYxMDAwMDAwMDAwMHh6czYxMQ"><use xlink:href="#MTBteHk5NTkxMDAwMDAwMDAwMHh6czkx" overflow="visible"></use></clipPath><g class="st4" clip-path="url(#MTBteHk0NzYxMDAwMDAwMDAwMHh6czYxMQ)"><path fill="rgb(249, 249, 249)" d="M44.69 41.597c-1.777 3.076-5 4.8-8.313 4.802H10.52l10.49-18.17h31.396L44.69 41.59z" class="st1" opacity=".3" coriginal="rgb(255, 255, 255, 1)" colortype="0" awdzp="0" style="fill: rgb(249, 249, 249);"></path></g><path fill="rgb(60, 199, 191)" d="M6.563 28.588c1.59 2.757 4.533 4.455 7.715 4.455h3.955l-4.62-8H4.518l2.046 3.545z" class="st2" coriginal="rgb(234, 122, 47, 1)" colortype="21" awdzp="21" style="fill: rgb(60, 199, 191);"></path><ellipse cx="23.004" cy="24.498" fill="rgb(0, 0, 23)" class="st0" rx="2" ry="2.5" coriginal="rgb(71, 71, 94, 1)" colortype="35" awdzp="35" style="fill: rgb(0, 0, 23);"></ellipse></svg>